HIERARCHY
ROOT Hips
{
	OFFSET 0.00000 0.00000 0.00000
	CHANNELS 6 Xposition Yposition Zposition Zrotation Yrotation Xrotation 
	JOINT LHipJoint
	{
		OFFSET 0 0 0
		CHANNELS 3 Zrotation Yrotation Xrotation
		JOINT LeftUpLeg
		{
			OFFSET 1.48831 -1.59570 0.95625
			CHANNELS 3 Zrotation Yrotation Xrotation
			JOINT LeftLeg
			{
				OFFSET 2.20856 -6.06797 0.00000
				CHANNELS 3 Zrotation Yrotation Xrotation
				JOINT LeftFoot
				{
					OFFSET 2.62924 -7.22379 0.00000
					CHANNELS 3 Zrotation Yrotation Xrotation
					JOINT LeftToeBase
					{
						OFFSET 0.16802 -0.46163 2.41673
						CHANNELS 3 Zrotation Yrotation Xrotation
						End Site
						{
							OFFSET 0.00000 -0.00000 1.23760
						}
					}
				}
			}
		}
	}
	JOINT RHipJoint
	{
		OFFSET 0 0 0
		CHANNELS 3 Zrotation Yrotation Xrotation
		JOINT RightUpLeg
		{
			OFFSET -1.56796 -1.59570 0.95625
			CHANNELS 3 Zrotation Yrotation Xrotation
			JOINT RightLeg
			{
				OFFSET -2.29239 -6.29829 0.00000
				CHANNELS 3 Zrotation Yrotation Xrotation
				JOINT RightFoot
				{
					OFFSET -2.66963 -7.33475 0.00000
					CHANNELS 3 Zrotation Yrotation Xrotation
					JOINT RightToeBase
					{
						OFFSET -0.18185 -0.49964 2.34359
						CHANNELS 3 Zrotation Yrotation Xrotation
						End Site
						{
							OFFSET -0.00000 -0.00000 1.20477
						}
					}
				}
			}
		}
	}
	JOINT LowerBack
	{
		OFFSET 0 0 0
		CHANNELS 3 Zrotation Yrotation Xrotation
		JOINT Spine
		{
			OFFSET 0.03505 2.15832 -0.34324
			CHANNELS 3 Zrotation Yrotation Xrotation
			JOINT Spine1
			{
				OFFSET -0.01089 2.17963 0.04689
				CHANNELS 3 Zrotation Yrotation Xrotation
				JOINT Neck
				{
					OFFSET 0 0 0
					CHANNELS 3 Zrotation Yrotation Xrotation
					JOINT Neck1
					{
						OFFSET 0.04686 1.69404 0.22159
						CHANNELS 3 Zrotation Yrotation Xrotation
						JOINT Head
						{
							OFFSET 0.00265 1.69305 -0.01513
							CHANNELS 3 Zrotation Yrotation Xrotation
							End Site
							{
								OFFSET -0.00415 1.80215 -0.03034
							}
						}
					}
				}
				JOINT LeftShoulder
				{
					OFFSET 0 0 0
					CHANNELS 3 Zrotation Yrotation Xrotation
					JOINT LeftArm
					{
						OFFSET 3.67184 1.11724 -0.19002
						CHANNELS 3 Zrotation Yrotation Xrotation
						JOINT LeftForeArm
						{
							OFFSET 5.17714 -0.00000 -0.00000
							CHANNELS 3 Zrotation Yrotation Xrotation
							JOINT LeftHand
							{
								OFFSET 3.43679 -0.00000 -0.00000
								CHANNELS 3 Zrotation Yrotation Xrotation
								JOINT LeftFingerBase
								{
									OFFSET 0 0 0
									CHANNELS 3 Zrotation Yrotation Xrotation
									JOINT LeftHandIndex1
									{
										OFFSET 0.57312 -0.00000 -0.00000
										CHANNELS 3 Zrotation Yrotation Xrotation
										End Site
										{
											OFFSET 0.46206 -0.00000 -0.00000
										}
									}
								}
								JOINT LThumb
								{
									OFFSET 0 0 0
									CHANNELS 3 Zrotation Yrotation Xrotation
									End Site
									{
										OFFSET 0.46912 -0.00000 0.46912
									}
								}
							}
						}
					}
				}
				JOINT RightShoulder
				{
					OFFSET 0 0 0
					CHANNELS 3 Zrotation Yrotation Xrotation
					JOINT RightArm
					{
						OFFSET -3.59596 0.95831 -0.26050
						CHANNELS 3 Zrotation Yrotation Xrotation
						JOINT RightForeArm
						{
							OFFSET -5.23908 -0.00000 -0.00000
							CHANNELS 3 Zrotation Yrotation Xrotation
							JOINT RightHand
							{
								OFFSET -3.46485 -0.00000 -0.00000
								CHANNELS 3 Zrotation Yrotation Xrotation
								JOINT RightFingerBase
								{
									OFFSET 0 0 0
									CHANNELS 3 Zrotation Yrotation Xrotation
									JOINT RightHandIndex1
									{
										OFFSET -0.60875 -0.00000 -0.00000
										CHANNELS 3 Zrotation Yrotation Xrotation
										End Site
										{
											OFFSET -0.49079 -0.00000 -0.00000
										}
									}
								}
								JOINT RThumb
								{
									OFFSET 0 0 0
									CHANNELS 3 Zrotation Yrotation Xrotation
									End Site
									{
										OFFSET -0.49829 -0.00000 0.49829
									}
								}
							}
						}
					}
				}
			}
		}
	}
}
MOTION
Frames: 16
Frame Time: .0083333
50.6393 15.6556 -26.9338 0 0 0 0 0 0 -21 0 0 0 0 0 0 0 0 0 0 0 0 0 0 21 0 0 0 0 0 0 0 0 0 0 0 0 0 0 0 0 0 0 0 0 0 0 -16 0 0 21 0 0 11 0 0 0 -8 0 0 0 0 0 0 0 0 0 0 0 0 0 0 0 0 0 0 0 0 8 0 0 0 0 0 0 0 0 0 0 0 0 0 0 0 0 0
50.6393 15.6556 -26.9338 -6.0168 -58.8792 2.5146 0.0000 0.0000 0.0000 -18.0334 10.4977 -7.3900 1.9351 8.7295 24.9528 1.2916 -0.2065 -21.4307 0.0000 0.0035 0.0096 0.0000 0.0000 0.0000 23.2285 6.5473 -8.7865 -3.9896 -12.1465 36.2524 -1.7944 -3.8877 -26.9454 -0.0031 0.3598 -0.9886 0.7396 -1.4853 -0.6203 0.6838 -2.0621 3.7149 0.2022 -1.0282 4.1707 2.3008 2.9438 -3.6892 -6.9506 4.4882 12.0563 -2.2919 1.8895 4.4157 0.0000 -0.0000 0.0000 -72.8065 -29.9062 55.9466 141.5876 -47.1007 -102.7329 -0.0000 0.0000 -21.4500 5.6691 0.4690 0.0466 -7.1250 0.0000 -0.0000 -16.3725 30.2127 6.1362 0.0000 -0.0000 0.0000 86.8542 -2.7758 15.5085 -14.8332 23.9132 -3.1580 0.0000 0.0000 1.8987 -20.2773 -4.9553 1.8279 7.1250 -0.0000 -0.0000 5.3193 -35.2204 1.2823
50.6350 15.6574 -26.9415 -5.9594 -59.0179 2.4810 0.0000 0.0000 0.0000 -18.0726 10.4294 -7.3151 1.9249 8.7078 24.8856 1.2884 0.0412 -21.4874 0.0001 -0.0701 -0.1927 0.0000 0.0000 0.0000 23.2648 6.7518 -8.6657 -3.9675 -12.1170 36.1473 -1.7881 -4.1122 -27.0114 -0.0064 0.5182 -1.4240 0.7770 -1.4841 -0.5105 0.6250 -2.0562 3.6457 0.1254 -1.0232 4.0330 2.4974 2.9498 -3.7477 -6.9830 4.4884 12.1225 -2.3333 1.8942 4.4504 0.0000 0.0000 0.0000 -71.9942 -28.7327 55.8791 140.4603 -47.7948 -101.9025 -0.0000 0.0000 -20.6725 5.1853 0.9538 0.0866 -7.1250 0.0000 -0.0000 -16.8254 30.6664 6.1283 0.0000 0.0000 0.0000 86.9561 -2.8305 15.6105 -14.9450 24.0695 -3.2035 0.0000 0.0000 1.6998 -20.4168 -4.8100 1.7878 7.1250 -0.0000 -0.0000 5.1900 -35.0726 1.2697
50.6307 15.6605 -26.9478 -5.9285 -59.1507 2.4921 0.0000 0.0000 0.0000 -18.1041 10.3273 -7.2409 1.9133 8.6831 24.8089 1.2931 0.2018 -21.5818 0.0001 0.0501 0.1377 0.0000 0.0000 0.0000 23.2975 6.9204 -8.6071 -3.9538 -12.0987 36.0821 -1.7837 -4.1433 -26.9968 -0.0047 0.4437 -1.2192 0.7861 -1.4920 -0.4705 0.6347 -2.0661 3.6081 0.1316 -1.0282 3.9713 2.5345 2.9632 -3.8747 -6.9848 4.5074 12.1898 -2.3372 1.9013 4.4942 0.0000 -0.0000 0.0000 -71.4177 -27.7131 55.9080 139.0849 -48.6028 -100.8771 -0.0000 0.0000 -20.0009 5.1349 1.2305 0.1106 -7.1250 0.0000 -0.0000 -16.9124 30.9307 6.0504 0.0000 -0.0000 0.0000 86.9253 -2.7991 15.7613 -15.0639 24.2350 -3.2521 0.0000 0.0000 1.4525 -20.4083 -4.8503 1.8019 7.1250 -0.0000 -0.0000 5.2009 -35.1150 1.2670
50.6280 15.6625 -26.9539 -5.8940 -59.2742 2.4800 0.0000 0.0000 0.0000 -18.1596 10.1346 -7.1382 1.9024 8.6597 24.7366 1.2933 0.5475 -21.7072 0.0000 0.0290 0.0798 0.0000 0.0000 0.0000 23.2983 6.9763 -8.5849 -3.9408 -12.0812 36.0197 -1.7727 -4.1868 -26.9418 -0.0049 0.4503 -1.2373 0.7749 -1.5185 -0.4742 0.6695 -2.1032 3.6318 0.1718 -1.0478 3.9997 2.5405 2.9935 -4.0045 -7.0322 4.5528 12.1666 -2.3484 1.9196 4.5126 -0.0000 0.0000 0.0000 -70.9136 -26.6755 55.9751 137.4606 -49.5045 -99.6501 -0.0000 0.0000 -19.8235 5.4251 1.6987 0.1613 -7.1250 0.0000 -0.0000 -16.7719 31.3899 5.8025 -0.0000 0.0000 0.0000 86.8426 -2.7362 16.0022 -15.2169 24.4474 -3.3152 0.0000 0.0000 1.2342 -20.3157 -4.9349 1.8241 7.1250 -0.0000 -0.0000 5.2855 -35.2005 1.2767
50.6253 15.6647 -26.9598 -5.8788 -59.4043 2.4916 0.0000 0.0000 0.0000 -18.1990 9.9792 -7.0535 1.8928 8.6390 24.6726 1.2943 0.8348 -21.8224 0.0000 0.0382 0.1048 0.0000 0.0000 0.0000 23.3125 7.0555 -8.5645 -3.9292 -12.0656 35.9645 -1.7620 -4.2209 -26.8842 -0.0046 0.4380 -1.2034 0.8025 -1.5238 -0.4505 0.6779 -2.1111 3.6242 0.1655 -1.0511 3.9777 2.6051 3.0060 -4.1245 -7.0611 4.5697 12.1974 -2.3653 1.9264 4.5452 -0.0000 -0.0000 0.0000 -70.3894 -25.6217 56.0904 135.8265 -50.3571 -98.3995 -0.0000 0.0000 -19.5393 5.5213 2.1526 0.2080 -7.1250 0.0000 -0.0000 -16.7795 31.8295 5.6197 -0.0000 -0.0000 0.0000 86.8214 -2.7056 16.1717 -15.3602 24.6455 -3.3747 0.0000 0.0000 1.0001 -20.2980 -4.9560 1.8302 7.1250 -0.0000 -0.0000 5.3022 -35.2221 1.2780
50.6231 15.6669 -26.9653 -5.8850 -59.5263 2.5206 0.0000 0.0000 0.0000 -18.2305 9.8090 -6.9672 1.8838 8.6197 24.6128 1.2949 1.1335 -21.9430 0.0000 0.0438 0.1204 0.0000 0.0000 0.0000 23.3272 7.0973 -8.5625 -3.9186 -12.0512 35.9135 -1.7500 -4.2250 -26.8026 -0.0041 0.4126 -1.1336 0.8431 -1.5314 -0.4243 0.6949 -2.1225 3.6175 0.1608 -1.0560 3.9551 2.6622 3.0193 -4.2472 -7.0944 4.5888 12.2298 -2.3821 1.9336 4.5788 -0.0000 0.0000 0.0000 -69.9234 -24.5650 56.2587 134.0060 -51.2463 -96.9887 -0.0000 0.0000 -19.3693 5.6883 2.6211 0.2610 -7.1250 0.0000 -0.0000 -16.7361 32.2863 5.4113 -0.0000 0.0000 0.0000 86.7880 -2.6787 16.3547 -15.5095 24.8510 -3.4372 0.0000 0.0000 0.7680 -20.2774 -4.9864 1.8393 7.1250 -0.0000 -0.0000 5.3222 -35.2534 1.2788
50.6212 15.6690 -26.9704 -5.9148 -59.6396 2.5675 0.0000 0.0000 0.0000 -18.2495 9.6336 -6.8858 1.8771 8.6053 24.5683 1.2960 1.4234 -22.0681 0.0001 0.0520 0.1428 0.0000 0.0000 0.0000 23.3494 7.1155 -8.5613 -3.9059 -12.0341 35.8528 -1.7382 -4.2129 -26.7136 -0.0037 0.3916 -1.0761 0.8975 -1.5380 -0.3976 0.7167 -2.1332 3.6118 0.1533 -1.0601 3.9329 2.7237 3.0314 -4.3680 -7.1309 4.6062 12.2654 -2.4008 1.9399 4.6132 0.0000 -0.0000 0.0000 -69.5059 -23.5119 56.4838 131.9836 -52.1635 -95.4013 -0.0000 0.0000 -19.2885 5.8813 3.1182 0.3210 -7.1250 0.0000 -0.0000 -16.6787 32.7722 5.1870 0.0000 -0.0000 0.0000 86.7514 -2.6606 16.5441 -15.6664 25.0663 -3.5034 0.0000 0.0000 0.5304 -20.2611 -5.0071 1.8453 7.1250 -0.0000 -0.0000 5.3377 -35.2745 1.2797
50.6194 15.6713 -26.9751 -5.9675 -59.7431 2.6322 0.0000 0.0000 0.0000 -18.2550 9.4590 -6.8054 1.8715 8.5932 24.5308 1.2974 1.6962 -22.1932 0.0001 0.0690 0.1896 0.0000 0.0000 0.0000 23.3825 7.1232 -8.5540 -3.8915 -12.0146 35.7836 -1.7285 -4.1846 -26.6315 -0.0032 0.3644 -1.0013 0.9622 -1.5441 -0.3799 0.7446 -2.1439 3.6109 0.1460 -1.0641 3.9207 2.7910 3.0413 -4.4811 -7.1745 4.6206 12.2946 -2.4230 1.9450 4.6445 -0.0000 0.0000 0.0000 -69.1401 -22.4786 56.7577 129.7226 -53.1068 -93.6041 -0.0000 0.0000 -19.2666 6.0772 3.6324 0.3865 -7.1250 0.0000 -0.0000 -16.6234 33.2755 4.9572 -0.0000 0.0000 0.0000 86.7095 -2.6448 16.7391 -15.8297 25.2892 -3.5729 0.0000 0.0000 0.2903 -20.2497 -5.0150 1.8471 7.1250 -0.0000 -0.0000 5.3479 -35.2824 1.2812
50.6174 15.6736 -26.9795 -6.0310 -59.8346 2.7032 0.0000 0.0000 0.0000 -18.2509 9.2961 -6.7278 1.8666 8.5824 24.4975 1.2990 1.9417 -22.3112 0.0002 0.0948 0.2605 0.0000 0.0000 0.0000 23.4219 7.1216 -8.5372 -3.8752 -11.9924 35.7051 -1.7210 -4.1491 -26.5610 -0.0028 0.3430 -0.9425 1.0328 -1.5471 -0.3697 0.7726 -2.1508 3.6113 0.1354 -1.0659 3.9140 2.8702 3.0443 -4.5745 -7.2200 4.6244 12.3159 -2.4485 1.9457 4.6698 -0.0000 0.0000 0.0000 -68.8226 -21.4782 57.0908 127.1916 -54.0672 -91.5671 -0.0000 0.0000 -19.2971 6.2823 4.1589 0.4574 -7.1250 0.0000 -0.0000 -16.5645 33.7918 4.7221 -0.0000 0.0000 0.0000 86.6718 -2.6430 16.9289 -15.9974 25.5171 -3.6448 0.0000 0.0000 0.0688 -20.2492 -5.0208 1.8492 7.1250 -0.0000 -0.0000 5.3489 -35.2884 1.2806
50.6153 15.6760 -26.9837 -6.0967 -59.9172 2.7739 0.0000 0.0000 0.0000 -18.2417 9.1499 -6.6542 1.8616 8.5716 24.4642 1.3004 2.1585 -22.4183 0.0004 0.1293 0.3552 0.0000 0.0000 0.0000 23.4651 7.1224 -8.5089 -3.8574 -11.9682 35.6195 -1.7163 -4.1121 -26.5091 -0.0025 0.3230 -0.8876 1.0976 -1.5482 -0.3763 0.8051 -2.1557 3.6228 0.1321 -1.0669 3.9286 2.9522 3.0423 -4.6616 -7.2702 4.6209 12.3225 -2.4766 1.9433 4.6893 0.0000 0.0000 0.0000 -68.5602 -20.5316 57.4634 124.3650 -55.0299 -89.2643 -0.0000 0.0000 -19.3716 6.4749 4.7246 0.5356 -7.1250 0.0000 -0.0000 -16.5248 34.3462 4.4782 0.0000 0.0000 0.0000 86.6301 -2.6410 17.1132 -16.1756 25.7582 -3.7219 0.0000 -0.0000 -0.1448 -20.2492 -5.0167 1.8477 7.1250 -0.0000 -0.0000 5.3485 -35.2842 1.2811
50.6131 15.6785 -26.9876 -6.1560 -59.9956 2.8368 0.0000 0.0000 0.0000 -18.2340 9.0188 -6.5825 1.8562 8.5598 24.4279 1.3017 2.3569 -22.5173 0.0007 0.1658 0.4557 0.0000 0.0000 0.0000 23.5037 7.1182 -8.4768 -3.8390 -11.9430 35.5307 -1.7119 -4.0724 -26.4585 -0.0022 0.3004 -0.8254 1.1500 -1.5526 -0.3944 0.8454 -2.1656 3.6454 0.1430 -1.0709 3.9621 3.0233 3.0448 -4.7520 -7.3235 4.6242 12.3172 -2.5033 1.9437 4.7059 -0.0000 0.0000 0.0000 -68.3568 -19.6405 57.8504 121.2194 -55.9762 -86.6715 -0.0000 0.0000 -19.4743 6.6246 5.3446 0.6198 -7.1250 0.0000 -0.0000 -16.5329 34.9517 4.2269 -0.0000 0.0000 0.0000 86.5731 -2.6276 17.3096 -16.3563 26.0013 -3.8008 0.0000 -0.0000 -0.3428 -20.2576 -5.0028 1.8434 7.1250 -0.0000 -0.0000 5.3401 -35.2698 1.2810
50.6110 15.6810 -26.9915 -6.1989 -60.0702 2.8831 0.0000 0.0000 0.0000 -18.2325 8.9021 -6.5117 1.8500 8.5464 24.3863 1.3021 2.5409 -22.6047 0.0010 0.2011 0.5525 0.0000 0.0000 0.0000 23.5320 7.1041 -8.4462 -3.8207 -11.9179 35.4420 -1.7066 -4.0341 -26.4019 -0.0019 0.2789 -0.7663 1.1839 -1.5621 -0.4113 0.8922 -2.1824 3.6730 0.1705 -1.0790 4.0009 3.0780 3.0507 -4.8500 -7.3758 4.6330 12.3076 -2.5267 1.9461 4.7225 0.0000 -0.0000 0.0000 -68.2181 -18.8057 58.2437 117.7409 -56.8825 -83.7728 -0.0000 0.0000 -19.5912 6.6854 6.0201 0.7043 -7.1250 0.0000 -0.0000 -16.6275 35.6064 3.9767 0.0000 -0.0000 0.0000 86.4981 -2.6037 17.5223 -16.5353 26.2410 -3.8796 0.0000 -0.0000 -0.5307 -20.2661 -4.9962 1.8418 7.1250 -0.0000 -0.0000 5.3325 -35.2632 1.2800
50.6088 15.6834 -26.9955 -6.2286 -60.1395 2.9150 0.0000 0.0000 0.0000 -18.2353 8.7926 -6.4388 1.8430 8.5312 24.3395 1.3021 2.7122 -22.6846 0.0013 0.2362 0.6489 0.0000 0.0000 0.0000 23.5523 7.0785 -8.4186 -3.8028 -11.8933 35.3555 -1.7012 -3.9922 -26.3426 -0.0017 0.2650 -0.7282 1.2010 -1.5709 -0.4290 0.9430 -2.1982 3.7047 0.2116 -1.0873 4.0453 3.1257 3.0557 -4.9508 -7.4235 4.6406 12.2976 -2.5474 1.9477 4.7391 -0.0000 0.0000 0.0000 -68.1294 -18.0234 58.6513 113.9418 -57.7193 -80.5754 -0.0000 0.0000 -19.6929 6.6168 6.7619 0.7825 -7.1250 0.0000 -0.0000 -16.8470 36.3171 3.7285 -0.0000 0.0000 0.0000 86.4136 -2.5752 17.7350 -16.7126 26.4774 -3.9584 0.0000 -0.0000 -0.7161 -20.2855 -4.9809 1.8381 7.1250 -0.0000 -0.0000 5.3150 -35.2478 1.2777
50.6067 15.6859 -26.9997 -6.2455 -60.1975 2.9320 0.0000 0.0000 0.0000 -18.2421 8.6815 -6.3603 1.8352 8.5141 24.2869 1.3003 2.8851 -22.7523 0.0016 0.2570 0.7060 0.0000 0.0000 0.0000 23.5664 7.0403 -8.3927 -3.7853 -11.8690 35.2703 -1.6954 -3.9522 -26.2819 -0.0015 0.2519 -0.6920 1.2086 -1.5855 -0.4196 0.9939 -2.2206 3.7230 0.2588 -1.0994 4.0608 3.1650 3.0623 -5.0433 -7.4636 4.6504 12.2914 -2.5645 1.9505 4.7553 -0.0000 -0.0000 0.0000 -68.0879 -17.2631 59.0660 109.8190 -58.4625 -77.0752 -0.0000 0.0000 -19.7439 6.4127 7.5449 0.8455 -7.1250 0.0000 -0.0000 -17.1944 37.0571 3.4868 -0.0000 -0.0000 0.0000 86.3276 -2.5676 17.9522 -16.8856 26.7067 -4.0358 0.0000 -0.0000 -0.8831 -20.3171 -4.9566 1.8323 7.1250 -0.0000 -0.0000 5.2864 -35.2237 1.2739
50.6044 15.6883 -27.0042 -6.2540 -60.2422 2.9358 0.0000 0.0000 0.0000 -18.2494 8.5693 -6.2746 1.8268 8.4955 24.2294 1.2970 3.0567 -22.8078 0.0017 0.2662 0.7315 0.0000 0.0000 0.0000 23.5797 6.9974 -8.3607 -3.7677 -11.8447 35.1846 -1.6901 -3.9193 -26.2275 -0.0014 0.2451 -0.6735 1.2069 -1.6025 -0.3967 1.0446 -2.2454 3.7371 0.3114 -1.1131 4.0647 3.2000 3.0653 -5.1303 -7.4935 4.6544 12.2879 -2.5780 1.9509 4.7706 -0.0000 0.0000 0.0000 -68.0959 -16.5538 59.4966 105.3606 -59.0894 -73.2620 -0.0000 0.0000 -19.7236 6.0810 8.3732 0.8888 -7.1250 0.0000 -0.0000 -17.6681 37.8287 3.2416 -0.0000 0.0000 0.0000 86.2434 -2.5711 18.1636 -17.0551 26.9303 -4.1123 0.0000 -0.0000 -1.0504 -20.3414 -4.9318 1.8255 7.1250 -0.0000 -0.0000 5.2639 -35.1984 1.2717
